<?xml version="1.0" standalone="no"?>
<!DOCTYPE svg PUBLIC "-//W3C//DTD SVG 20010904//EN"
 "http://www.w3.org/TR/2001/REC-SVG-20010904/DTD/svg10.dtd">
<svg version="1.0" xmlns="http://www.w3.org/2000/svg"
 width="296.000000pt" height="364.000000pt" viewBox="0 0 296.000000 364.000000"
 preserveAspectRatio="xMidYMid meet">

<g transform="translate(0.000000,364.000000) scale(0.100000,-0.100000)"
fill="#000000" stroke="none">
<path d="M1487 3503 c-9 -213 -48 -302 -206 -467 -231 -242 -374 -469 -436
-696 -46 -167 -44 -370 5 -543 l11 -37 33 25 c32 24 34 29 40 110 14 169 67
302 162 405 104 112 309 189 472 176 165 -13 230 -21 244 -34 8 -7 62 -112
119 -233 71 -152 110 -224 124 -230 11 -4 40 -11 65 -14 50 -7 71 -19 88 -52
35 -65 1 -109 -128 -162 l-95 -39 -1 -149 c-1 -138 -6 -201 -21 -240 -4 -11
17 -3 68 23 106 55 240 191 296 300 63 120 87 217 87 349 0 205 -74 382 -227
542 l-60 62 -18 -23 c-46 -58 -161 -74 -234 -33 -30 16 -48 37 -70 82 -27 54
-30 70 -30 150 0 50 4 144 9 210 14 188 -22 329 -119 475 -40 61 -147 170
-166 170 -3 0 -9 -57 -12 -127z"/>
<path d="M267 2552 l-267 -267 0 -405 0 -406 271 -264 271 -263 216 216 c188
188 215 219 205 234 -6 10 -15 17 -20 16 -5 -1 -54 -5 -109 -9 -92 -6 -101 -5
-126 15 -56 45 -48 96 37 216 l42 60 -25 95 c-22 85 -25 115 -26 280 -1 163 2
195 22 267 37 139 111 292 220 461 l14 22 -228 0 -229 0 -268 -268z"/>
<path d="M1856 2812 c-9 -14 11 -138 27 -169 21 -40 67 -59 115 -47 31 8 42
18 67 66 17 32 34 58 38 58 4 0 48 -39 98 -87 197 -190 299 -411 299 -647 0
-404 -271 -731 -689 -831 l-73 -18 220 -220 221 -220 390 389 391 389 0 405 0
405 -268 268 -267 267 -282 0 c-155 0 -284 -4 -287 -8z"/>
<path d="M1397 2374 c-226 -54 -360 -225 -373 -474 -3 -52 -7 -105 -9 -116 -3
-12 -35 -44 -74 -72 -93 -68 -200 -206 -178 -229 4 -4 68 2 143 12 116 15 137
16 148 4 16 -17 36 -74 36 -102 0 -12 -91 -112 -240 -264 -133 -135 -240 -248
-238 -252 2 -3 199 -200 438 -438 l436 -432 314 314 315 315 -233 233 -232
232 0 68 0 67 79 0 c75 0 81 2 110 30 48 49 55 85 56 292 0 152 3 190 15 202
8 8 60 32 114 53 55 21 101 43 103 50 3 7 -14 14 -44 18 -105 14 -101 10 -267
368 -32 70 -62 127 -66 127 -4 0 -20 -5 -37 -10 -23 -8 -36 -7 -59 5 -37 19
-176 19 -257 -1z"/>
</g>
</svg>
