<svg xmlns="http://www.w3.org/2000/svg" width="1234" height="1517" viewBox="0 0 1234 1517" version="1.1"><path d="M 614.169 522.041 C 576.574 525.641, 541.493 537.705, 512.771 556.911 C 468.763 586.339, 440.072 633.173, 430.106 691.851 C 428.976 698.503, 427.370 713.520, 426.536 725.223 C 423.147 772.770, 423.102 773.146, 420.269 777.286 C 416.579 782.679, 407.177 791.221, 391.818 803.136 C 376.881 814.724, 358.615 832.002, 347.031 845.500 C 326.294 869.664, 314.321 890.452, 317.032 897.585 C 317.830 899.683, 318.591 900, 322.835 900 C 329.317 900, 352.559 897.639, 381.749 894.015 C 429.383 888.101, 435.236 888.061, 439.675 893.621 C 444.998 900.288, 452.197 919.310, 453.442 930 C 454.074 935.429, 454.018 935.584, 449.130 942 C 437.645 957.073, 411.712 984.855, 345.515 1053 C 273.318 1127.322, 255 1146.871, 255 1149.597 C 255 1150.646, 582.257 1477.131, 610.031 1503.791 L 619.563 1512.940 751.030 1381.470 L 882.497 1250 785.248 1152.748 L 688 1055.496 688 1028.381 L 688 1001.266 717.250 1000.736 C 751.250 1000.120, 753.710 999.652, 762.838 992.055 C 769.658 986.380, 777.285 976.673, 780.662 969.373 C 783.738 962.724, 786.658 950.805, 787.981 939.500 C 788.561 934.550, 789.473 903.950, 790.009 871.500 C 791.246 796.611, 792.088 786.734, 797.660 781.778 C 800.623 779.142, 822.467 769.007, 842.500 760.974 C 862.791 752.837, 879.523 745.188, 883.994 742.004 C 888.116 739.069, 887.906 736.277, 883.422 734.403 C 881.454 733.581, 873.467 731.843, 865.672 730.541 C 847.822 727.559, 846.558 727.243, 840.617 724.273 C 830.531 719.230, 821.979 708.831, 809.966 687 C 802.272 673.018, 792.938 653.666, 764.628 593 C 739.782 539.757, 732.403 525.661, 729.124 525.176 C 727.919 524.998, 722.121 526.283, 716.240 528.031 C 704.040 531.658, 700.828 531.583, 691.494 527.455 C 681.341 522.965, 673.549 521.913, 647.500 521.515 C 634.300 521.313, 619.301 521.550, 614.169 522.041" stroke="none" fill="#741c10" fill-rule="evenodd"/><path d="M 623.577 6.750 C 622.418 12.223, 620.954 29.830, 619.448 56.397 C 616.351 111.024, 610.998 137.703, 597.492 165.815 C 584.355 193.158, 569.325 213.191, 532.470 252.478 C 461.040 328.624, 417.433 388.698, 384.439 456.411 C 368.483 489.157, 357.999 517.357, 350.170 548.594 C 334.628 610.599, 334.080 681.734, 348.642 747 C 351.039 757.743, 357.876 783.010, 358.626 783.898 C 358.811 784.116, 363.825 780.621, 369.770 776.129 C 386.138 763.761, 386.831 762.232, 389.520 732.500 C 395.170 670.045, 408.404 627.761, 434.700 588.142 C 450.970 563.628, 468.386 546.043, 492 530.285 C 532.781 503.072, 590.912 485, 637.669 485 C 655.166 485, 721.817 491.300, 739.194 494.596 C 753.548 497.319, 754.232 497.797, 761.068 509.868 C 768.568 523.110, 792.270 570.892, 810.987 610.500 C 832.907 656.887, 847.775 684.647, 853.658 690.167 C 857.168 693.460, 863.267 695.226, 882.415 698.492 C 891.641 700.065, 899.549 702.032, 903.149 703.647 C 918.714 710.633, 929.252 733.598, 923.186 747.313 C 920.087 754.319, 916.496 758.477, 908.048 764.843 C 897.591 772.722, 884.144 779.451, 853.500 792.136 L 827.500 802.899 826.815 851.699 C 825.866 919.274, 824.181 944.255, 819.543 959.500 C 817.117 967.475, 817.349 968.367, 821.666 967.667 C 827.196 966.769, 852.125 954.194, 864 946.311 C 897.222 924.258, 935.161 886.378, 957.456 853 C 975.316 826.260, 990.658 791.395, 998.379 760 C 1009.849 713.363, 1009.502 656.653, 997.452 608.196 C 986.439 563.910, 966.539 524.725, 935.232 485.679 C 926.765 475.120, 900.570 446.579, 890.365 436.795 L 886.500 433.090 880.729 440.228 C 871.322 451.864, 862.151 457.838, 846.307 462.651 C 838.470 465.031, 835.794 465.335, 822 465.413 C 804.013 465.514, 796.204 463.808, 782.854 456.863 C 769.545 449.939, 761.652 440.528, 751.516 419.500 C 743.751 403.389, 742.047 396.966, 741.041 380 C 740.045 363.224, 741.201 319.037, 743.574 283.155 C 746.317 241.666, 744.929 206.340, 739.501 179.490 C 731.002 137.451, 709.429 91.694, 682.457 58.500 C 661.793 33.070, 631.642 4, 625.929 4 C 624.806 4, 623.946 5.005, 623.577 6.750" stroke="none" fill="#f4ac2c" fill-rule="evenodd"/><path d="M 111.248 452.252 L 0 563.503 0.011 733.502 L 0.022 903.500 47.776 950 C 149.670 1049.218, 225.243 1122.512, 225.919 1122.771 C 226.926 1123.157, 369.164 980.139, 383.327 964.500 C 396.479 949.977, 401.681 942.943, 402.557 938.500 C 403.039 936.054, 402.517 934.771, 399.734 931.553 L 396.320 927.605 366.410 929.948 C 349.959 931.237, 330.200 932.331, 322.500 932.379 C 310.044 932.457, 307.965 932.222, 303.648 930.245 C 296.558 926.997, 284.777 914.830, 282.664 908.572 C 276.853 891.364, 284.769 873.768, 322.959 819 L 328.886 810.500 322.881 788 C 310.134 740.233, 309.323 734.467, 307.902 681.500 C 306.228 619.133, 307.828 579.655, 312.909 557.907 C 326.789 498.504, 355.007 436.371, 402.630 360.351 C 408.884 350.369, 414 341.932, 414 341.601 C 414 341.270, 370.912 341, 318.248 341 L 222.497 341 111.248 452.252 M 823.500 342.036 C 781.421 342.931, 774.326 343.523, 772.861 346.259 C 769.659 352.243, 778.119 402.478, 784.553 415.678 C 787.997 422.743, 797.334 431.231, 804.715 434.003 C 816.265 438.342, 831.345 437.628, 841.971 432.239 C 848.397 428.981, 852.563 423.888, 860.140 410.029 C 863.006 404.788, 867.747 396.772, 870.675 392.215 C 875.161 385.236, 876.277 384.080, 877.750 384.882 C 884.877 388.758, 932.758 435.190, 948.338 453.333 C 1020.382 537.227, 1050.956 631.738, 1038.931 733.373 C 1034.345 772.138, 1020.954 815.537, 1003.100 849.500 C 985.427 883.120, 966.626 908.301, 938.847 935.559 C 909.149 964.700, 877.355 986.946, 839.500 1005.071 C 811.373 1018.537, 787.970 1026.676, 750.217 1036.119 C 736.623 1039.519, 725.173 1042.583, 724.774 1042.927 C 724.375 1043.271, 765.434 1084.937, 816.018 1135.518 L 907.987 1227.483 953.744 1181.998 C 978.910 1156.980, 1052.263 1083.871, 1116.750 1019.533 L 1234 902.554 1234 733.025 L 1234 563.497 1122.748 452.248 L 1011.497 341 933.998 341.167 C 891.374 341.259, 841.650 341.650, 823.500 342.036" stroke="none" fill="#d42c24" fill-rule="evenodd"/></svg>